:FULLY-SPECIFIED
:FORCE-ALL-JOINTS-BE-3DOF
:DEGREES
2752
root -5.559 13.9753 -28.4071 1242 -65.4881 -161.137
lfemur -59.6177 42.9998 -6.60274
ltibia 67.8989 0 0
lfoot -2.43896 -1.56525 0
ltoes -31.5748 0 0
rfemur -30.8106 -18.7141 21.5963
rtibia 81.866 0 0
rfoot -35.2584 -24.75 0
rtoes -13.9333 0 0
lowerback 15.6667 5.79914 0.491115
upperback -4.01752 8.07856 1.4492
thorax -13.4247 3.78607 -0.844322
lowerneck -2.49027 9.60068 2.10698
upperneck 7.69873 12.5515 1.93281
head 2.89222 6.33604 0.677191
lclavicle -6.93634e-014 -1.82882e-014 0
lhumerus 3.65819 10.5334 84.1427
lradius 94.6518 0 0
lwrist -18.716 0 0
lhand -39.7287 388.035 0
lfingers 7.12502 0 0
lthumb -12.7062 -662.371 0
rclavicle -6.93634e-014 -1.82882e-014 0
rhumerus -57.8841 50.9998 -110.268
rradius 114.084 0 0
rwrist -84.7016 0 0
rhand 4.82202 -386.895 0
rfingers 7.12502 0 0
rthumb 30.2002 305.554 0
2753
root -5.56817 13.9642 -28.4139 1242.05 -65.5102 -161.176
lfemur -59.7073 43.0725 -6.63158
ltibia 68.0415 0 0
lfoot -2.49551 -1.64443 0
ltoes -31.6008 0 0
rfemur -30.8105 -18.7462 21.5676
rtibia 81.9731 0 0
rfoot -35.3669 -24.7763 0
rtoes -13.9353 0 0
lowerback 15.6356 5.79704 0.467967
upperback -4.03157 8.07057 1.44563
thorax -13.4252 3.78439 -0.831001
lowerneck -2.48973 9.60091 2.10863
upperneck 7.71932 12.5514 1.93228
head 2.89928 6.33599 0.677584
lclavicle -6.807e-014 -1.82074e-014 0
lhumerus 3.65057 10.5727 84.1395
lradius 94.6398 0 0
lwrist -18.7527 0 0
lhand -39.7246 388.026 0
lfingers 7.12502 0 0
lthumb -12.7022 -662.38 0
rclavicle -6.807e-014 -1.82074e-014 0
rhumerus -57.9023 50.9701 -110.285
rradius 114.082 0 0
rwrist -84.6872 0 0
rhand 4.85129 -386.874 0
rfingers 7.12502 0 0
rthumb 30.2281 305.58 0
2754
root -5.57734 13.9531 -28.4207 1242.1 -65.5272 -161.221
lfemur -59.7945 43.1439 -6.65569
ltibia 68.1888 0 0
lfoot -2.55611 -1.71327 0
ltoes -31.6402 0 0
rfemur -30.8128 -18.7746 21.5378
rtibia 82.0849 0 0
rfoot -35.4769 -24.8027 0
rtoes -13.9381 0 0
lowerback 15.605 5.79606 0.445349
upperback -4.04686 8.06436 1.44266
thorax -13.4275 3.78346 -0.817935
lowerneck -2.48876 9.60156 2.11012
upperneck 7.73806 12.5519 1.93132
head 2.90566 6.33626 0.677787
lclavicle -6.53858e-014 -1.79222e-014 0
lhumerus 3.63863 10.6134 84.1305
lradius 94.6346 0 0
lwrist -18.7847 0 0
lhand -39.721 388.017 0
lfingers 7.12502 0 0
lthumb -12.6987 -662.389 0
rclavicle -6.53858e-014 -1.79222e-014 0
rhumerus -57.9209 50.9451 -110.302
rradius 114.08 0 0
rwrist -84.6722 0 0
rhand 4.87865 -386.854 0
rfingers 7.12502 0 0
rthumb 30.2542 305.605 0
2755
root -5.58651 13.942 -28.4276 1242.15 -65.5396 -161.271
lfemur -59.8793 43.2142 -6.67534
ltibia 68.3404 0 0
lfoot -2.62032 -1.77271 0
ltoes -31.6913 0 0
rfemur -30.8174 -18.7995 21.5069
rtibia 82.2009 0 0
rfoot -35.5881 -24.8292 0
rtoes -13.9416 0 0
lowerback 15.5749 5.79611 0.423274
upperback -4.06324 8.05976 1.44025
thorax -13.4314 3.78321 -0.805114
lowerneck -2.48742 9.60259 2.11146
upperneck 7.75517 12.553 1.92996
head 2.91143 6.33682 0.677825
lclavicle -6.14573e-014 -1.74537e-014 0
lhumerus 3.62282 10.6554 84.1161
lradius 94.6355 0 0
lwrist -18.8123 0 0
lhand -39.7178 388.008 0
lfingers 7.12502 0 0
lthumb -12.6957 -662.397 0
rclavicle -6.14573e-014 -1.74537e-014 0
rhumerus -57.9399 50.9242 -110.319
rradius 114.077 0 0
rwrist -84.6568 0 0
rhand 4.90431 -386.834 0
rfingers 7.12502 0 0
rthumb 30.2787 305.629 0
2756
root -5.59568 13.931 -28.4344 1242.21 -65.5479 -161.326
lfemur -59.9619 43.2834 -6.69077
ltibia 68.4956 0 0
lfoot -2.68768 -1.8237 0
ltoes -31.7527 0 0
rfemur -30.8239 -18.8214 21.4754
rtibia 82.3206 0 0
rfoot -35.7003 -24.8559 0
rtoes -13.9456 0 0
lowerback 15.5453 5.79706 0.401759
upperback -4.08056 8.05663 1.43838
thorax -13.4367 3.78358 -0.792526
lowerneck -2.48576 9.60398 2.11265
upperneck 7.77084 12.5547 1.92825
head 2.91667 6.33764 0.67772
lclavicle -5.64312e-014 -1.68227e-014 0
lhumerus 3.60361 10.6985 84.097
lradius 94.6418 0 0
lwrist -18.8359 0 0
lhand -39.7152 388.001 0
lfingers 7.12502 0 0
lthumb -12.6931 -662.405 0
rclavicle -5.64312e-014 -1.68227e-014 0
rhumerus -57.9592 50.9073 -110.336
rradius 114.075 0 0
rwrist -84.6409 0 0
rhand 4.92849 -386.815 0
rfingers 7.12502 0 0
rthumb 30.3018 305.652 0
2757
root -5.60485 13.9199 -28.4412 1242.28 -65.5523 -161.385
lfemur -60.0423 43.3513 -6.70226
ltibia 68.6541 0 0
lfoot -2.75775 -1.86719 0
ltoes -31.8231 0 0
rfemur -30.8321 -18.8403 21.4432
rtibia 82.4435 0 0
rfoot -35.8133 -24.8829 0
rtoes -13.95 0 0
lowerback 15.5162 5.79881 0.380817
upperback -4.09868 8.0548 1.43701
thorax -13.4432 3.7845 -0.780161
lowerneck -2.48382 9.60567 2.11371
upperneck 7.7853 12.5569 1.92625
head 2.92146 6.3387 0.677495
lclavicle -5.04543e-014 -1.60503e-014 0
lhumerus 3.58144 10.7425 84.0737
lradius 94.653 0 0
lwrist -18.8558 0 0
lhand -39.7129 387.993 0
lfingers 7.12502 0 0
lthumb -12.6909 -662.412 0
rclavicle -5.04543e-014 -1.60503e-014 0
rhumerus -57.9788 50.8937 -110.353
rradius 114.073 0 0
rwrist -84.6248 0 0
rhand 4.95138 -386.797 0
rfingers 7.12502 0 0
rthumb 30.3236 305.675 0
2758
root -5.61402 13.9088 -28.448 1242.34 -65.5535 -161.447
lfemur -60.1207 43.4182 -6.71007
ltibia 68.8152 0 0
lfoot -2.8301 -1.90413 0
ltoes -31.9008 0 0
rfemur -30.8416 -18.8565 21.4107
rtibia 82.5691 0 0
rfoot -35.9269 -24.9102 0
rtoes -13.9548 0 0
lowerback 15.4876 5.80125 0.360464
upperback -4.11743 8.05413 1.43612
thorax -13.4508 3.78589 -0.768007
lowerneck -2.48165 9.60765 2.11462
upperneck 7.79875 12.5595 1.92399
head 2.92587 6.33997 0.677173
lclavicle -4.36732e-014 -1.51575e-014 0
lhumerus 3.55677 10.7872 84.047
lradius 94.6683 0 0
lwrist -18.8725 0 0
lhand -39.7109 387.987 0
lfingers 7.12502 0 0
lthumb -12.6891 -662.418 0
rclavicle -4.36732e-014 -1.51575e-014 0
rhumerus -57.9986 50.8832 -110.37
rradius 114.071 0 0
rwrist -84.6084 0 0
rhand 4.97321 -386.779 0
rfingers 7.12502 0 0
rthumb 30.3444 305.697 0
2759
root -5.62319 13.8977 -28.4548 1242.41 -65.5517 -161.511
lfemur -60.1971 43.4839 -6.71446
ltibia 68.9784 0 0
lfoot -2.90428 -1.93546 0
ltoes -31.9845 0 0
rfemur -30.8523 -18.8703 21.378
rtibia 82.697 0 0
rfoot -36.0409 -24.9379 0
rtoes -13.9598 0 0
lowerback 15.4596 5.80427 0.340714
upperback -4.13667 8.05446 1.43568
thorax -13.4592 3.78768 -0.756054
lowerneck -2.4793 9.60986 2.1154
upperneck 7.81139 12.5625 1.92153
head 2.92998 6.34141 0.676778
lclavicle -3.62345e-014 -1.41653e-014 0
lhumerus 3.53006 10.8325 84.0174
lradius 94.6871 0 0
lwrist -18.8861 0 0
lhand -39.7093 387.98 0
lfingers 7.12502 0 0
lthumb -12.6875 -662.425 0
rclavicle -3.62345e-014 -1.41653e-014 0
rhumerus -58.0186 50.8753 -110.387
rradius 114.069 0 0
rwrist -84.5919 0 0
rhand 4.99418 -386.761 0
rfingers 7.12502 0 0
rthumb 30.3644 305.718 0
2760
root -5.63236 13.8866 -28.4617 1242.48 -65.5475 -161.577
lfemur -60.2718 43.5486 -6.71569
ltibia 69.1434 0 0
lfoot -2.97984 -1.96212 0
ltoes -32.0726 0 0
rfemur -30.8638 -18.8819 21.3453
rtibia 82.8265 0 0
rfoot -36.1551 -24.966 0
rtoes -13.9649 0 0
lowerback 15.4322 5.80777 0.321582
upperback -4.15625 8.05563 1.43566
thorax -13.4684 3.78981 -0.74429
lowerneck -2.47682 9.61228 2.11605
upperneck 7.82345 12.5658 1.9189
head 2.93387 6.343 0.676332
lclavicle -2.82849e-014 -1.30946e-014 0
lhumerus 3.50177 10.8781 83.9855
lradius 94.7086 0 0
lwrist -18.8972 0 0
lhand -39.7079 387.975 0
lfingers 7.12502 0 0
lthumb -12.6861 -662.43 0
rclavicle -2.82849e-014 -1.30946e-014 0
rhumerus -58.0387 50.8697 -110.404
rradius 114.067 0 0
rwrist -84.5754 0 0
rhand 5.0145 -386.744 0
rfingers 7.12502 0 0
rthumb 30.3838 305.739 0
2761
root -5.64153 13.8755 -28.4685 1242.55 -65.5412 -161.645
lfemur -60.3447 43.6121 -6.71403
ltibia 69.3095 0 0
lfoot -3.05634 -1.98508 0
ltoes -32.1638 0 0
rfemur -30.8758 -18.8916 21.3129
rtibia 82.9573 0 0
rfoot -36.2693 -24.9947 0
rtoes -13.9701 0 0
lowerback 15.4054 5.81162 0.303082
upperback -4.17602 8.05749 1.43603
thorax -13.4781 3.7922 -0.732705
lowerneck -2.47426 9.61486 2.11658
upperneck 7.83513 12.5694 1.91616
head 2.93762 6.34471 0.675859
lclavicle -1.99711e-014 -1.19665e-014 0
lhumerus 3.47235 10.924 83.952
lradius 94.7323 0 0
lwrist -18.9061 0 0
lhand -39.7067 387.969 0
lfingers 7.12502 0 0
lthumb -12.685 -662.436 0
rclavicle -1.99711e-014 -1.19665e-014 0
rhumerus -58.0589 50.8659 -110.421
rradius 114.065 0 0
rwrist -84.559 0 0
rhand 5.03438 -386.727 0
rfingers 7.12502 0 0
rthumb 30.4028 305.759 0
2762
root -5.6507 13.8644 -28.4753 1242.62 -65.5333 -161.712
lfemur -60.416 43.6746 -6.70973
ltibia 69.4762 0 0
lfoot -3.13333 -2.00527 0
ltoes -32.2565 0 0
rfemur -30.888 -18.8996 21.281
rtibia 83.0887 0 0
rfoot -36.3832 -25.0239 0
rtoes -13.9751 0 0
lowerback 15.3791 5.81573 0.28523
upperback -4.19582 8.05988 1.43676
thorax -13.4881 3.79479 -0.721289
lowerneck -2.47166 9.61757 2.11699
upperneck 7.84663 12.5731 1.91336
head 2.9413 6.34651 0.675381
lclavicle -1.14398e-014 -1.0802e-014 0
lhumerus 3.44226 10.9698 83.9173
lradius 94.7574 0 0
lwrist -18.9131 0 0
lhand -39.7056 387.964 0
lfingers 7.12502 0 0
lthumb -12.684 -662.441 0
rclavicle -1.14398e-014 -1.0802e-014 0
rhumerus -58.0791 50.8635 -110.437
rradius 114.063 0 0
rwrist -84.5428 0 0
rhand 5.05402 -386.71 0
rfingers 7.12502 0 0
rthumb 30.4215 305.779 0
2763
root -5.65988 13.8534 -28.4821 1242.69 -65.5243 -161.779
lfemur -60.4857 43.736 -6.70306
ltibia 69.643 0 0
lfoot -3.21038 -2.02363 0
ltoes -32.3493 0 0
rfemur -30.9003 -18.9061 21.2496
rtibia 83.2204 0 0
rfoot -36.4967 -25.0537 0
rtoes -13.98 0 0
lowerback 15.3535 5.81998 0.26804
upperback -4.21552 8.06265 1.43783
thorax -13.4984 3.7975 -0.710029
lowerneck -2.46907 9.62038 2.11729
upperneck 7.85817 12.577 1.91053
head 2.94499 6.34837 0.674922
lclavicle -2.83757e-015 -9.62195e-015 0
lhumerus 3.41195 11.0156 83.8822
lradius 94.7834 0 0
lwrist -18.9186 0 0
lhand -39.7047 387.959 0
lfingers 7.12502 0 0
lthumb -12.6831 -662.445 0
rclavicle -2.83757e-015 -9.62195e-015 0
rhumerus -58.0993 50.8622 -110.454
rradius 114.06 0 0
rwrist -84.5268 0 0
rhand 5.07364 -386.694 0
rfingers 7.12502 0 0
rthumb 30.4402 305.799 0
